<svg width="25" height="32" viewBox="0 0 25 32" fill="none" xmlns="http://www.w3.org/2000/svg">
<path fill-rule="evenodd" clip-rule="evenodd" d="M18.4515 8.55814C18.4515 8.85419 18.3338 9.13812 18.1245 9.34747C17.9152 9.55681 17.6312 9.67442 17.3352 9.67442C17.0391 9.67442 16.7552 9.55681 16.5458 9.34747C16.3365 9.13812 16.2189 8.85419 16.2189 8.55814V6.32558C16.2189 5.24004 15.7877 4.19897 15.0201 3.43138C14.2525 2.66379 13.2114 2.23256 12.1259 2.23256C11.0403 2.23256 9.99926 2.66379 9.23167 3.43138C8.46408 4.19897 8.03285 5.24004 8.03285 6.32558V8.55814C8.03285 8.85419 7.91524 9.13812 7.7059 9.34747C7.49656 9.55681 7.21263 9.67442 6.91657 9.67442C6.62052 9.67442 6.33659 9.55681 6.12724 9.34747C5.9179 9.13812 5.80029 8.85419 5.80029 8.55814V6.32558C5.80029 4.64793 6.46674 3.039 7.65301 1.85272C8.83929 0.666443 10.4482 0 12.1259 0C13.8035 0 15.4125 0.666443 16.5987 1.85272C17.785 3.039 18.4515 4.64793 18.4515 6.32558V8.55814Z" fill="white"/>
<path fill-rule="evenodd" clip-rule="evenodd" d="M23.0533 10.5675L24.244 28.4279C24.2739 28.8854 24.2097 29.344 24.0554 29.7757C23.9011 30.2073 23.6599 30.6027 23.3467 30.9375C23.0336 31.2722 22.6552 31.5392 22.2348 31.722C21.8144 31.9048 21.361 31.9994 20.9026 32H3.34874C2.89022 31.9998 2.43663 31.9055 2.01604 31.7229C1.59545 31.5403 1.21682 31.2733 0.903596 30.9384C0.590368 30.6036 0.349207 30.208 0.195044 29.7762C0.0408811 29.3443 -0.0230027 28.8855 0.00734804 28.4279L1.19805 10.5675C1.25468 9.71985 1.63134 8.92542 2.25174 8.34508C2.87215 7.76475 3.68992 7.44189 4.53944 7.44189H19.7119C20.5614 7.44189 21.3792 7.76475 21.9996 8.34508C22.62 8.92542 22.9967 9.71985 23.0533 10.5675ZM15.8258 14.0324C15.493 14.7319 14.9688 15.3227 14.3139 15.7364C13.659 16.15 12.9003 16.3696 12.1257 16.3696C11.3511 16.3696 10.5924 16.15 9.93746 15.7364C9.28257 15.3227 8.75835 14.7319 8.42558 14.0324C8.36264 13.9 8.27424 13.7813 8.16542 13.683C8.0566 13.5847 7.92949 13.5089 7.79135 13.4598C7.65321 13.4106 7.50675 13.3892 7.36032 13.3966C7.21389 13.4041 7.07037 13.4404 6.93795 13.5033C6.80553 13.5662 6.6868 13.6546 6.58855 13.7635C6.49029 13.8723 6.41443 13.9994 6.3653 14.1375C6.31616 14.2757 6.29472 14.4221 6.30219 14.5685C6.30966 14.715 6.3459 14.8585 6.40884 14.9909C6.92148 16.0733 7.73088 16.988 8.7429 17.6285C9.75493 18.2689 10.928 18.609 12.1257 18.609C13.3233 18.609 14.4964 18.2689 15.5084 17.6285C16.5205 16.988 17.3299 16.0733 17.8425 14.9909C17.9054 14.8585 17.9417 14.715 17.9492 14.5685C17.9566 14.4221 17.9352 14.2757 17.886 14.1375C17.8369 13.9994 17.7611 13.8723 17.6628 13.7635C17.5645 13.6546 17.4458 13.5662 17.3134 13.5033C17.181 13.4404 17.0375 13.4041 16.891 13.3966C16.7446 13.3892 16.5981 13.4106 16.46 13.4598C16.3219 13.5089 16.1947 13.5847 16.0859 13.683C15.9771 13.7813 15.8887 13.9 15.8258 14.0324Z" fill="white"/>
</svg>
